<?xml version="1.0" encoding="iso-8859-1"?>
<!-- Generator: Adobe Illustrator 19.0.0, SVG Export Plug-In . SVG Version: 6.00 Build 0)  -->
<svg fill = "#fff" version="1.1" id="Capa_1" xmlns="http://www.w3.org/2000/svg" xmlns:xlink="http://www.w3.org/1999/xlink" x="0px" y="0px"
	 viewBox="0 0 490.667 490.667" style="enable-background:new 0 0 490.667 490.667;" xml:space="preserve">
<g>
	<g>
		<path d="M341.333,96V53.333C341.298,23.893,317.441,0.035,288,0H160c-29.441,0.035-53.298,23.893-53.333,53.333v59.584
			l-48.373,48.384c-10.035,9.978-15.661,23.555-15.627,37.707v206.325H32c-5.891,0-10.667,4.776-10.667,10.667v64
			c0,5.891,4.776,10.667,10.667,10.667h202.667c5.891,0,10.667-4.776,10.667-10.667v-64c0-5.891-4.776-10.667-10.667-10.667h-21.333
			v-1.067c12.703-2.655,23.997-9.863,31.755-20.267H288c29.441-0.035,53.298-23.893,53.333-53.333v-42.005H320v10.005H160v-6.251
			l49.141-49.141c20.84-20.75,20.912-54.464,0.163-75.304c-0.054-0.054-0.108-0.109-0.163-0.163l-7.467-7.467
			c-8.35-8.341-21.879-8.341-30.229,0l-42.325,42.325H128V85.333h192V96H341.333z M224,426.667v42.667H42.667v-42.667H224z M320,320
			v10.667c0,17.673-14.327,32-32,32H160c-5.697-0.038-11.279-1.607-16.16-4.544c10.323-9.998,16.153-23.752,16.16-38.123H320z
			 M133.547,224c2.829-0.001,5.541-1.125,7.541-3.125l45.504-45.429l7.467,7.467c7.4,7.482,10.733,18.077,8.949,28.448
			c-1.19,6.401-4.296,12.289-8.907,16.885l-52.267,52.267c-2.003,1.98-3.142,4.672-3.168,7.488v32c0,17.673-14.327,32-32,32v21.333
			c5.974-0.067,11.893-1.149,17.504-3.2c9.801,8.92,22.577,13.864,35.829,13.867h42.667c-5.891,0-10.667,4.776-10.667,10.667v10.667
			H64V199.008c0.022-8.482,3.391-16.613,9.376-22.624l33.291-33.301V224H133.547z M128,64V53.333c0-17.673,14.327-32,32-32h128
			c17.673,0,32,14.327,32,32V64H128z"/>
	</g>
</g>
<g>
	<g>
		<path d="M373.333,96c-53.019,0-96,42.981-96,96c0,53.019,42.981,96,96,96s96-42.981,96-96
			C469.275,139.005,426.328,96.059,373.333,96z M373.333,266.667c-41.237,0-74.667-33.429-74.667-74.667
			c0-41.237,33.429-74.667,74.667-74.667C414.571,117.333,448,150.763,448,192C447.953,233.218,414.551,266.62,373.333,266.667z"/>
	</g>
</g>
<g>
	<g>
		<path d="M416,170.667V160c0-11.782-9.551-21.333-21.333-21.333H384V128h-21.333v10.667H352c-11.782,0-21.333,9.551-21.333,21.333
			v21.333c0,11.782,9.551,21.333,21.333,21.333h42.667V224H352v-10.667h-21.333V224c0,11.782,9.551,21.333,21.333,21.333h10.667V256
			H384v-10.667h10.667c11.782,0,21.333-9.551,21.333-21.333v-21.333c0-11.782-9.551-21.333-21.333-21.333H352V160h42.667v10.667H416
			z"/>
	</g>
</g>
<g>
	<g>
		<path d="M149.333,96c-5.891,0-10.667,4.776-10.667,10.667v32H160v-21.333h21.333V96H149.333z"/>
	</g>
</g>
<g>
</g>
<g>
</g>
<g>
</g>
<g>
</g>
<g>
</g>
<g>
</g>
<g>
</g>
<g>
</g>
<g>
</g>
<g>
</g>
<g>
</g>
<g>
</g>
<g>
</g>
<g>
</g>
<g>
</g>
</svg>
